#N canvas 922 335 1497 826 10;
#X obj 393 525 line~;
#X obj 383 417 * 5000;
#X obj 393 500 pack f f;
#X obj 752 692 hv.tanh;
#X obj 510 482 + 5;
#X obj 393 633 hip~ 40;
#X obj 393 657 lop~ 10000;
#X obj 752 627 vcf~ 1.5;
#X obj 752 647 hip~ 40;
#X obj 752 668 lop~ 6000;
#X obj 752 605 *~;
#X obj 869 591 sig~;
#X obj 869 565 mtof;
#X obj 869 518 * 120;
#X obj 869 540 + 30;
#X obj 374 688 c_xfade;
#X msg 530 730 \$1 10;
#X obj 510 460 * 2000;
#X obj 770 570 *~ 1.5;
#X text 622 287 Writing into delay buffer;
#X text 479 548 Reading from Delay buffer;
#X text 903 591 Cut Off Fq;
#X text 811 695 saturation;
#X obj 720 180 audioToControl;
#X obj 650 150 audioToControl;
#X text 823 657 filter out low and high freqs;
#X obj 520 160 adc~ 1 2;
#X text 740 80 Ramp time;
#X text 33 51 ===============================;
#X text 440 20 ............................;
#X text 440 30 . ____ ._____ _ .......___ .;
#X text 440 40 .| __ )| ____| |....../ _ |.;
#X text 440 60 .| |_) | |___| |___ / ___ |.;
#X text 440 80 ............................;
#X text 440 50 .| __ || __|.| |...../ _| |.;
#X text 57 123 a Eurorack module based on Bela.;
#X text 58 149 I/O:;
#X text 440 70 .|____/|_____|_____/_/..._|.io;
#X text 33 42 Tape Delay - by Robert Thomas - robertthomassound.com
;
#X text 58 159 Audio in 1-2: audio inputs (summed to mono);
#X obj 383 448 + 10;
#X text 37 75 Tape delay simulator with variable-speed tape and saturation
;
#X obj 310 750 dac~ 1 2;
#X obj 393 549 vd~ \$0-del1;
#X obj 617 311 delwrite~ \$0-del1 5000;
#X obj 539 275 *~;
#X text 920 80 FX send;
#X obj 660 120 lop~ 500;
#X text 670 80 Tape speed;
#X obj 527 240 +~;
#X text 58 239 Audio out 1-2: mono audio output;
#X text 13 309 Credits:;
#X text 13 319 Pd patching: Robert Thomas;
#X text 13 329 Additional Pd patching: Franky Redente;
#X text 13 349 Featuring components from the following libraries:;
#X text 13 359 RjLib \, Heavylib;
#X obj 410 740 send~ audio;
#X text 20 440 Edited by Robert Jack to make PEPPER compatible;
#X text 58 169 CV in 0: tape speed;
#X text 58 179 CV in 1: tape ramp time;
#X text 58 189 CV in 2: high-frequency rolloff;
#X text 58 199 CV in 3: feedback;
#X text 58 209 CV in 4: FX send;
#X text 58 219 CV in 5: wet/dry;
#X text 57 113 This patch is designed to run on Pepper \,;
#X text 13 339 Original Pd patching: Jon Pigrem;
#X obj 340 120 init_pepper_gui;
#X obj 760 50 guicontrols;
#X obj 802 292 buttons;
#X obj 820 10 CV_In;
#X obj 872 312 CV_Out;
#X obj 330 150 Audio_In_Out;
#X obj 930 220 audioToControl;
#X text 810 80 rolloff;
#X text 1000 80 Wet/Dry;
#X obj 830 160 audioToControl;
#X text 870 80 FB;
#X obj 1000 110 lop~ 100;
#X obj 930 130 lop~ 200;
#X obj 1020 170 lop~ 200;
#X obj 97 601 receive~ audio;
#X obj 97 630 led-audio-meter;
#X obj 100 690 led-bargraph;
#X text 30 550;
#X connect 0 0 43 0;
#X connect 1 0 40 0;
#X connect 2 0 0 0;
#X connect 3 0 44 0;
#X connect 4 0 2 1;
#X connect 5 0 6 0;
#X connect 6 0 15 1;
#X connect 7 0 8 0;
#X connect 8 0 9 0;
#X connect 9 0 3 0;
#X connect 10 0 7 0;
#X connect 11 0 7 1;
#X connect 12 0 11 0;
#X connect 13 0 14 0;
#X connect 14 0 12 0;
#X connect 15 0 56 0;
#X connect 15 0 42 0;
#X connect 15 0 42 1;
#X connect 16 0 15 2;
#X connect 17 0 4 0;
#X connect 18 0 10 1;
#X connect 23 0 17 0;
#X connect 24 0 1 0;
#X connect 26 0 49 0;
#X connect 26 1 49 1;
#X connect 40 0 2 0;
#X connect 43 0 5 0;
#X connect 43 0 10 0;
#X connect 45 0 44 0;
#X connect 47 0 24 0;
#X connect 49 0 15 0;
#X connect 49 0 45 0;
#X connect 67 4 47 0;
#X connect 67 5 23 0;
#X connect 67 6 75 0;
#X connect 67 7 78 0;
#X connect 67 8 79 0;
#X connect 67 9 77 0;
#X connect 69 0 67 4;
#X connect 69 1 67 5;
#X connect 69 2 67 6;
#X connect 69 3 67 7;
#X connect 69 4 67 8;
#X connect 69 5 67 9;
#X connect 69 6 67 10;
#X connect 69 7 67 11;
#X connect 72 0 16 0;
#X connect 75 0 13 0;
#X connect 77 0 45 1;
#X connect 78 0 18 0;
#X connect 79 0 72 0;
#X connect 80 0 81 0;
#X connect 81 0 82 0;
#X connect 81 1 82 1;
#X connect 81 2 82 2;
#X connect 81 3 82 3;
#X connect 81 4 82 4;
#X connect 81 5 82 5;
#X connect 81 6 82 6;
#X connect 81 7 82 7;
#X connect 81 8 82 8;
#X connect 81 9 82 9;
