#N canvas 1050 521 739 552 10;
#X obj 230 -80 s bela_guiOut;
#X obj 202 -458 adc~ 1 2;
#X obj 160 -360 r clock;
#X obj 260 -360 r clock;
#X obj 232 -408 env~;
#X msg 60 -430 2;
#X obj 60 -460 r clock;
#X obj 292 -408 env~;
#X obj 232 -318 snapshot~;
#X obj 312 -368 snapshot~;
#X obj 222 -138 pack f f f f f;
#X obj 130 -440 outlet~;
#X obj 380 -440 outlet~;
#X obj 420 -260 dac~ 1 2;
#X obj 410 -340 inlet~;
#X obj 490 -330 inlet~;
#X obj 410 -210 r clock;
#X obj 470 -210 r clock;
#X obj 370 -240 env~;
#X obj 532 -218 env~;
#X obj 330 -190 snapshot~;
#X obj 550 -190 snapshot~;
#X connect 1 0 4 0;
#X connect 1 0 11 0;
#X connect 1 1 7 0;
#X connect 1 1 12 0;
#X connect 2 0 8 0;
#X connect 3 0 9 0;
#X connect 4 0 8 0;
#X connect 5 0 10 0;
#X connect 6 0 5 0;
#X connect 7 0 9 0;
#X connect 8 0 10 1;
#X connect 9 0 10 2;
#X connect 10 0 0 0;
#X connect 14 0 13 0;
#X connect 14 0 18 0;
#X connect 15 0 13 1;
#X connect 15 0 19 0;
#X connect 16 0 20 0;
#X connect 17 0 21 0;
#X connect 18 0 20 0;
#X connect 19 0 21 0;
#X connect 20 0 10 3;
#X connect 21 0 10 4;
