#N canvas 927 521 909 535 10;
#X obj 42 152 f;
#X obj 82 152 delay 3;
#X obj 182 152 f;
#X obj 222 152 delay 3;
#X obj 312 152 f;
#X obj 362 152 delay 3;
#X obj 462 152 f, f 6;
#X obj 532 152 delay 3;
#X obj 200 70 r bela_digitalIn25;
#X obj 330 70 r bela_digitalIn24;
#X obj 480 70 r bela_digitalIn23;
#X obj 62 72 r bela_digitalIn26;
#X obj 90 30 inlet;
#X obj 200 30 inlet;
#X obj 330 30 inlet;
#X obj 480 30 inlet;
#X obj 80 220 outlet;
#X obj 190 220 outlet;
#X obj 310 220 outlet;
#X obj 450 210 outlet;
#X obj 220 290 pack f f f f f;
#X obj 10 250 r clock;
#X msg 70 270 4;
#X obj 200 380 s bela_guiOut;
#X connect 0 0 16 0;
#X connect 0 0 20 1;
#X connect 1 0 0 0;
#X connect 2 0 20 2;
#X connect 2 0 17 0;
#X connect 3 0 2 0;
#X connect 4 0 18 0;
#X connect 4 0 20 3;
#X connect 5 0 4 0;
#X connect 6 0 19 0;
#X connect 6 0 20 4;
#X connect 7 0 6 0;
#X connect 8 0 2 1;
#X connect 8 0 3 0;
#X connect 9 0 4 1;
#X connect 9 0 5 0;
#X connect 10 0 6 1;
#X connect 10 0 7 0;
#X connect 11 0 0 1;
#X connect 11 0 1 0;
#X connect 12 0 0 1;
#X connect 12 0 1 0;
#X connect 13 0 2 1;
#X connect 13 0 3 0;
#X connect 14 0 4 1;
#X connect 14 0 5 0;
#X connect 15 0 6 1;
#X connect 15 0 7 0;
#X connect 20 0 23 0;
#X connect 21 0 22 0;
#X connect 22 0 20 0;
