#N canvas 1050 416 797 507 10;
#X obj 90 -20 snapshot~;
#X obj 60 -70 r clock;
#X msg 58 -12 0;
#X obj 270 -200 adc~ 3 4 5 6 7 8 9 10;
#X obj 180 -20 snapshot~;
#X obj 180 -70 r clock;
#X obj 270 -20 snapshot~;
#X obj 270 -70 r clock;
#X obj 360 -20 snapshot~;
#X obj 360 -70 r clock;
#X obj 460 -20 snapshot~;
#X obj 460 -70 r clock;
#X obj 540 -20 snapshot~;
#X obj 540 -70 r clock;
#X obj 620 -20 snapshot~;
#X obj 620 -70 r clock;
#X obj 700 -20 snapshot~;
#X obj 700 -70 r clock;
#X obj 290 120 s bela_guiOut;
#X obj 100 -150 outlet~;
#X obj 170 -150 outlet~;
#X obj 240 -150 outlet~;
#X obj 310 -150 outlet~;
#X obj 390 -150 outlet~;
#X obj 460 -150 outlet~;
#X obj 520 -150 outlet~;
#X obj 600 -150 outlet~;
#X obj 290 60 pack f f f f f f f f f f, f 28;
#X obj 530 80 s gui;
#X obj 530 40 1, f 10;
#X obj 320 200 setflow;
#X connect 0 0 27 1;
#X connect 0 0 30 0;
#X connect 1 0 0 0;
#X connect 1 0 2 0;
#X connect 2 0 27 0;
#X connect 3 0 0 0;
#X connect 3 0 19 0;
#X connect 3 1 4 0;
#X connect 3 1 20 0;
#X connect 3 2 6 0;
#X connect 3 2 21 0;
#X connect 3 3 8 0;
#X connect 3 3 22 0;
#X connect 3 4 10 0;
#X connect 3 4 23 0;
#X connect 3 5 12 0;
#X connect 3 5 24 0;
#X connect 3 6 14 0;
#X connect 3 6 25 0;
#X connect 3 7 16 0;
#X connect 3 7 26 0;
#X connect 4 0 27 2;
#X connect 4 0 30 1;
#X connect 5 0 4 0;
#X connect 6 0 27 3;
#X connect 6 0 30 2;
#X connect 7 0 6 0;
#X connect 8 0 27 4;
#X connect 8 0 30 3;
#X connect 9 0 8 0;
#X connect 10 0 27 5;
#X connect 10 0 30 4;
#X connect 11 0 10 0;
#X connect 12 0 27 6;
#X connect 12 0 30 5;
#X connect 13 0 12 0;
#X connect 14 0 27 7;
#X connect 14 0 30 6;
#X connect 15 0 14 0;
#X connect 16 0 27 8;
#X connect 16 0 30 7;
#X connect 17 0 16 0;
#X connect 27 0 18 0;
#X connect 29 0 27 9;
#X connect 29 0 28 0;
