#N canvas 1050 521 997 528 10;
#X obj 240 140 dac~ 3 4 5 6 7 8 9 10;
#X obj 92 280 snapshot~;
#X obj 52 240 r clock;
#X obj 202 280 snapshot~;
#X obj 162 240 r clock;
#X obj 292 280 snapshot~;
#X obj 252 240 r clock;
#X obj 382 280 snapshot~;
#X obj 342 240 r clock;
#X obj 482 280 snapshot~;
#X obj 442 240 r clock;
#X obj 562 280 snapshot~;
#X obj 522 240 r clock;
#X obj 642 280 snapshot~;
#X obj 602 240 r clock;
#X obj 722 280 snapshot~;
#X obj 682 240 r clock;
#X obj 324 362 pack f f f f f f f f f, f 23;
#X obj 324 392 s bela_guiOut;
#X msg 52 360 1;
#X obj 90 50 inlet~;
#X obj 150 50 inlet~;
#X obj 220 50 inlet~;
#X obj 290 50 inlet~;
#X obj 360 50 inlet~;
#X obj 420 50 inlet~;
#X obj 490 50 inlet~;
#X obj 550 50 inlet~;
#X connect 1 0 17 1;
#X connect 2 0 1 0;
#X connect 2 0 19 0;
#X connect 3 0 17 2;
#X connect 4 0 3 0;
#X connect 5 0 17 3;
#X connect 6 0 5 0;
#X connect 7 0 17 4;
#X connect 8 0 7 0;
#X connect 9 0 17 5;
#X connect 10 0 9 0;
#X connect 11 0 17 6;
#X connect 12 0 11 0;
#X connect 13 0 17 7;
#X connect 14 0 13 0;
#X connect 15 0 17 8;
#X connect 16 0 15 0;
#X connect 17 0 18 0;
#X connect 19 0 17 0;
#X connect 20 0 0 0;
#X connect 20 0 1 0;
#X connect 21 0 0 1;
#X connect 21 0 3 0;
#X connect 22 0 0 2;
#X connect 22 0 5 0;
#X connect 23 0 0 3;
#X connect 23 0 7 0;
#X connect 24 0 0 4;
#X connect 24 0 9 0;
#X connect 25 0 0 5;
#X connect 25 0 11 0;
#X connect 26 0 0 6;
#X connect 26 0 13 0;
#X connect 27 0 0 7;
#X connect 27 0 15 0;
