#N canvas 1050 521 958 300 10;
#X floatatom 400 20 5 0 0 0 - - -, f 5;
#X obj 60 110 tabread flow;
#X obj 400 -10 inlet;
#X obj 60 70 + 0;
#X obj 170 110 tabread flow;
#X obj 280 110 tabread flow;
#X obj 390 100 tabread flow;
#X obj 520 100 tabread flow;
#X obj 570 100 tabread flow;
#X obj 720 100 tabread flow;
#X obj 620 100 tabread flow;
#X obj 170 70 + 1;
#X obj 280 70 + 2;
#X obj 390 60 + 3;
#X obj 510 60 + 4;
#X obj 560 60 + 5;
#X obj 620 60 + 6;
#X obj 720 50 + 7;
#X obj 60 190 sig~, f 8;
#X obj 60 230 outlet~;
#X obj 160 190 sig~, f 8;
#X obj 160 230 outlet~;
#X obj 270 180 sig~, f 8;
#X obj 270 220 outlet~;
#X obj 390 190 sig~, f 8;
#X obj 390 230 outlet~;
#X obj 520 190 sig~, f 8;
#X obj 520 220 outlet~;
#X obj 610 180 sig~, f 8;
#X obj 610 220 outlet~;
#X obj 680 170 sig~, f 8;
#X obj 680 210 outlet~;
#X obj 750 170 sig~, f 8;
#X obj 750 210 outlet~;
#X connect 0 0 3 0;
#X connect 0 0 11 0;
#X connect 0 0 12 0;
#X connect 0 0 13 0;
#X connect 0 0 14 0;
#X connect 0 0 15 0;
#X connect 0 0 16 0;
#X connect 0 0 17 0;
#X connect 1 0 18 0;
#X connect 2 0 0 0;
#X connect 3 0 1 0;
#X connect 4 0 20 0;
#X connect 5 0 22 0;
#X connect 6 0 24 0;
#X connect 7 0 26 0;
#X connect 8 0 28 0;
#X connect 9 0 32 0;
#X connect 10 0 30 0;
#X connect 11 0 4 0;
#X connect 12 0 5 0;
#X connect 13 0 6 0;
#X connect 14 0 7 0;
#X connect 15 0 8 0;
#X connect 16 0 10 0;
#X connect 17 0 9 0;
#X connect 18 0 19 0;
#X connect 20 0 21 0;
#X connect 22 0 23 0;
#X connect 24 0 25 0;
#X connect 26 0 27 0;
#X connect 28 0 29 0;
#X connect 30 0 31 0;
#X connect 32 0 33 0;
