#N canvas 1073 692 957 441 10;
#X obj 20 70 r bela_guiControl;
#X obj 120 230 f;
#X obj 170 230 f;
#X obj 220 230 f;
#X obj 270 230 f;
#X obj 310 230 f;
#X obj 360 230 f;
#X obj 410 230 f;
#X obj 460 230 f;
#X obj 500 230 f;
#X obj 550 230 f;
#X obj 600 230 f;
#X obj 650 230 f;
#X obj 660 200 s gui;
#X obj 120 160 route but1 but2 but3 but4 knob1 knob2 knob3 knob4 knob5
knob6 knob7 knob8 ggui, f 82;
#X obj 110 10 inlet~;
#X obj 160 10 inlet~;
#X obj 230 10 inlet~;
#X obj 280 10 inlet~;
#X obj 340 10 inlet~;
#X obj 390 10 inlet~;
#X obj 470 10 inlet~;
#X obj 730 10 inlet~, f 10;
#X obj 660 10 inlet~;
#X obj 620 10 inlet~;
#X obj 570 10 inlet~;
#X obj 520 10 inlet~;
#X obj 340 120 *~;
#X obj 390 120 *~;
#X obj 450 120 *~;
#X obj 500 120 *~;
#X obj 550 120 *~;
#X obj 600 120 *~;
#X obj 660 120 *~;
#X obj 710 120 *~;
#X obj 40 290 outlet~;
#X obj 100 290 outlet~;
#X obj 150 290 outlet~;
#X obj 210 290 outlet~;
#X obj 270 290 outlet~;
#X obj 330 290 outlet~;
#X obj 380 290 outlet~;
#X obj 440 290 outlet~;
#X obj 500 290 outlet~;
#X obj 560 290 outlet~;
#X obj 610 290 outlet~;
#X obj 670 290 outlet~;
#X obj 50 260 sig~;
#X obj 120 260 sig~;
#X obj 170 260 sig~;
#X obj 230 260 sig~;
#X obj 290 260 sig~;
#X obj 340 260 sig~;
#X obj 390 260 sig~;
#X obj 440 260 sig~;
#X obj 490 260 sig~;
#X obj 540 260 sig~;
#X obj 590 260 sig~;
#X obj 640 260 sig~;
#X obj 480 50 flow, f 21;
#X obj 20 30 r clock;
#X connect 0 0 14 0;
#X connect 1 0 47 0;
#X connect 2 0 48 0;
#X connect 3 0 49 0;
#X connect 4 0 50 0;
#X connect 5 0 51 0;
#X connect 6 0 52 0;
#X connect 7 0 53 0;
#X connect 8 0 54 0;
#X connect 9 0 55 0;
#X connect 10 0 56 0;
#X connect 11 0 57 0;
#X connect 12 0 58 0;
#X connect 14 0 1 0;
#X connect 14 1 2 0;
#X connect 14 2 3 0;
#X connect 14 3 4 0;
#X connect 14 4 5 0;
#X connect 14 5 6 0;
#X connect 14 6 7 0;
#X connect 14 7 8 0;
#X connect 14 8 9 0;
#X connect 14 9 10 0;
#X connect 14 10 11 0;
#X connect 14 11 12 0;
#X connect 14 12 13 0;
#X connect 19 0 27 0;
#X connect 20 0 28 0;
#X connect 21 0 29 0;
#X connect 22 0 34 0;
#X connect 23 0 33 0;
#X connect 24 0 32 0;
#X connect 25 0 31 0;
#X connect 26 0 30 0;
#X connect 27 0 39 0;
#X connect 28 0 40 0;
#X connect 29 0 41 0;
#X connect 30 0 42 0;
#X connect 31 0 43 0;
#X connect 32 0 44 0;
#X connect 33 0 45 0;
#X connect 34 0 46 0;
#X connect 47 0 35 0;
#X connect 48 0 36 0;
#X connect 49 0 37 0;
#X connect 50 0 38 0;
#X connect 51 0 39 0;
#X connect 52 0 40 0;
#X connect 53 0 41 0;
#X connect 54 0 42 0;
#X connect 55 0 43 0;
#X connect 56 0 44 0;
#X connect 57 0 45 0;
#X connect 58 0 46 0;
#X connect 59 0 27 1;
#X connect 59 1 28 1;
#X connect 59 2 29 1;
#X connect 59 3 30 1;
#X connect 59 4 31 1;
#X connect 59 5 32 1;
#X connect 59 6 33 1;
#X connect 59 7 34 1;
#X connect 60 0 59 0;
