#N canvas 1050 521 921 475 10;
#X text 162 -28 Initialise the buttons;
#X text 152 -138 Initialise the LED pins at signal rate;
#X obj 570 240 s bela_setGui;
#X obj 590 -70 bng 20 250 50 0 empty empty empty 17 7 0 10 #fcfcfc
#000000 #000000;
#X obj 580 -120 loadbang;
#X msg 388 -2 new control but1;
#X msg 390 30 new control but2;
#X msg 390 60 new control but3;
#X msg 390 90 new control but4;
#X msg 710 -120 new control knob1;
#X msg 712 -88 new control knob2;
#X msg 712 -58 new control knob3;
#X msg 712 -28 new control knob4;
#X msg 710 10 new control knob5;
#X msg 712 42 new control knob6;
#X msg 712 72 new control knob7;
#X msg 712 102 new control knob8;
#X obj 400 150 loadbang;
#X obj 400 200 metro 30;
#X obj 400 250 s clock;
#X obj 52 242 loadbang;
#X obj 50 310 s gui;
#X msg 710 160 new control ggui;
#X obj 50 280 1;
#X msg 530 60 new array flow;
#N canvas 0 0 450 300 (subpatch) 0;
#X array flow 8 float 3 black black;
#A 0 0 0 0 0 0 0 0 0;
#X coords 0 1 8 -1 200 140 1;
#X restore 130 100 graph;
#N canvas 0 0 450 300 (subpatch) 0;
#X array oldadc 8 float 3 black black;
#A 0 0 0 0 0 0 0 0 0;
#X coords 0 1 8 -1 200 140 1;
#X restore 30 100 graph;
#X obj 40 -40 s bela_setDigital;
#X obj 30 -140 loadbang;
#X obj 30 70 s bela_setDigital;
#X obj 40 0 loadbang;
#X msg 50 -110 out 17 ~ \, out 18 ~ \, out 21 ~ \, out 13 ~ \, out
14 ~ \, out 11 ~ \, out 12 ~ \, out 15 ~ \, out 16 ~ \, out 19 ~,
f 79;
#X msg 50 40 in 25 \, in 26 \, in 27 \, in 28;
#X connect 3 0 5 0;
#X connect 3 0 7 0;
#X connect 3 0 6 0;
#X connect 3 0 8 0;
#X connect 3 0 9 0;
#X connect 3 0 10 0;
#X connect 3 0 11 0;
#X connect 3 0 12 0;
#X connect 3 0 13 0;
#X connect 3 0 14 0;
#X connect 3 0 15 0;
#X connect 3 0 16 0;
#X connect 3 0 22 0;
#X connect 3 0 24 0;
#X connect 4 0 3 0;
#X connect 5 0 2 0;
#X connect 6 0 2 0;
#X connect 7 0 2 0;
#X connect 8 0 2 0;
#X connect 9 0 2 0;
#X connect 10 0 2 0;
#X connect 11 0 2 0;
#X connect 12 0 2 0;
#X connect 13 0 2 0;
#X connect 14 0 2 0;
#X connect 15 0 2 0;
#X connect 16 0 2 0;
#X connect 17 0 18 0;
#X connect 18 0 19 0;
#X connect 20 0 23 0;
#X connect 22 0 2 0;
#X connect 23 0 21 0;
#X connect 24 0 2 0;
#X connect 28 0 31 0;
#X connect 30 0 32 0;
#X connect 31 0 27 0;
#X connect 32 0 29 0;
