#N canvas 627 511 1296 542 10;
#X obj 240 64 dac~ 17 18 21 13 14 11 12 15 16 19;
#X obj 290 -52 phasor~ 2000;
#X obj 290 0 expr~ $v1 < $v2;
#X text 720 -80 <<< PWM signal with variable duty cycle;
#X obj 618 -112 abs~;
#X obj 618 -91 lop~ 20;
#X obj 618 -137 inlet~;
#X obj 482 72 outlet~;
#X obj 552 72 outlet~;
#X obj 632 72 outlet~;
#X obj 692 72 outlet~;
#X obj 752 72 outlet~;
#X obj 802 72 outlet~;
#X obj 862 72 outlet~;
#X obj 942 82 outlet~;
#X obj 992 82 outlet~;
#X obj 1052 82 outlet~;
#X text 1410 -141;
#X connect 1 0 2 0;
#X connect 2 0 0 0;
#X connect 2 0 0 1;
#X connect 2 0 0 2;
#X connect 2 0 0 3;
#X connect 2 0 0 4;
#X connect 2 0 0 5;
#X connect 2 0 0 6;
#X connect 2 0 0 7;
#X connect 2 0 0 8;
#X connect 2 0 0 9;
#X connect 4 0 5 0;
#X connect 5 0 2 1;
#X connect 5 0 7 0;
#X connect 5 0 8 0;
#X connect 5 0 9 0;
#X connect 5 0 10 0;
#X connect 5 0 11 0;
#X connect 5 0 12 0;
#X connect 5 0 13 0;
#X connect 5 0 14 0;
#X connect 5 0 15 0;
#X connect 5 0 16 0;
#X connect 6 0 4 0;
