#N canvas 985 524 1273 495 10;
#X obj 330 320 pack f f f f f f f f f f f;
#X obj 12 212 r clock;
#X msg 22 272 3;
#X obj 340 380 s bela_guiOut;
#X obj 70 270 snapshot~;
#X obj 80 210 r clock;
#X obj 160 260 snapshot~;
#X obj 160 210 r clock;
#X obj 302 272 snapshot~;
#X obj 310 220 r clock;
#X obj 392 272 snapshot~;
#X obj 400 220 r clock;
#X obj 482 272 snapshot~;
#X obj 490 220 r clock;
#X obj 572 272 snapshot~;
#X obj 580 220 r clock;
#X obj 652 282 snapshot~;
#X obj 660 230 r clock;
#X obj 722 282 snapshot~;
#X obj 730 230 r clock;
#X obj 792 282 snapshot~;
#X obj 800 230 r clock;
#X obj 882 282 snapshot~;
#X obj 890 230 r clock;
#X obj 315 21 inlet~;
#X obj 383 21 inlet~;
#X obj 433 21 inlet~;
#X obj 504 21 inlet~;
#X obj 555 21 inlet~;
#X obj 25 21 inlet~;
#X obj 75 21 inlet~;
#X obj 144 21 inlet~;
#X obj 194 21 inlet~;
#X obj 265 21 inlet~;
#X connect 0 0 3 0;
#X connect 1 0 2 0;
#X connect 2 0 0 0;
#X connect 4 0 0 1;
#X connect 5 0 4 0;
#X connect 6 0 0 2;
#X connect 7 0 6 0;
#X connect 8 0 0 3;
#X connect 9 0 8 0;
#X connect 10 0 0 4;
#X connect 11 0 10 0;
#X connect 12 0 0 5;
#X connect 13 0 12 0;
#X connect 14 0 0 6;
#X connect 15 0 14 0;
#X connect 16 0 0 7;
#X connect 17 0 16 0;
#X connect 18 0 0 8;
#X connect 19 0 18 0;
#X connect 20 0 0 9;
#X connect 21 0 20 0;
#X connect 22 0 0 10;
#X connect 23 0 22 0;
#X connect 24 0 14 0;
#X connect 25 0 16 0;
#X connect 26 0 18 0;
#X connect 27 0 20 0;
#X connect 28 0 22 0;
#X connect 29 0 4 0;
#X connect 30 0 6 0;
#X connect 31 0 8 0;
#X connect 32 0 10 0;
#X connect 33 0 12 0;
