#N canvas 512 521 1820 376 10;
#X obj 660 -220 r clock;
#X obj 180 -130 + 0;
#X floatatom 660 -180 5 0 0 0 - - -, f 5;
#X obj 140 -100 tabread oldadc;
#X obj 60 40 tabwrite oldadc;
#X obj 120 -60 -;
#X obj 120 -20 abs;
#X obj 120 10 > 0.01;
#X obj 110 80 tabwrite flow;
#X obj 120 -170 inlet;
#X obj 362 -98 tabread oldadc;
#X obj 282 42 tabwrite oldadc;
#X obj 342 -58 -;
#X obj 342 -18 abs;
#X obj 342 12 > 0.01;
#X obj 340 80 tabwrite flow;
#X obj 342 -168 inlet;
#X obj 572 -109 tabread oldadc;
#X obj 492 31 tabwrite oldadc;
#X obj 552 -69 -;
#X obj 552 -29 abs;
#X obj 552 1 > 0.01;
#X obj 550 70 tabwrite flow;
#X obj 552 -179 inlet;
#X obj 782 -108 tabread oldadc;
#X obj 702 32 tabwrite oldadc;
#X obj 762 -68 -;
#X obj 762 -28 abs;
#X obj 762 2 > 0.01;
#X obj 760 60 tabwrite flow;
#X obj 762 -178 inlet;
#X obj 992 -108 tabread oldadc;
#X obj 912 32 tabwrite oldadc;
#X obj 972 -68 -;
#X obj 972 -28 abs;
#X obj 972 2 > 0.01;
#X obj 970 60 tabwrite flow;
#X obj 972 -178 inlet;
#X obj 1212 -109 tabread oldadc;
#X obj 1132 31 tabwrite oldadc;
#X obj 1192 -69 -;
#X obj 1192 -29 abs;
#X obj 1192 1 > 0.01;
#X obj 1190 70 tabwrite flow;
#X obj 1192 -179 inlet;
#X obj 1422 -108 tabread oldadc;
#X obj 1342 32 tabwrite oldadc;
#X obj 1402 -68 -;
#X obj 1402 -28 abs;
#X obj 1402 2 > 0.01;
#X obj 1400 70 tabwrite flow;
#X obj 1402 -178 inlet;
#X obj 1632 -108 tabread oldadc;
#X obj 1550 40 tabwrite oldadc;
#X obj 1612 -68 -;
#X obj 1612 -28 abs;
#X obj 1612 2 > 0.01;
#X obj 1610 60 tabwrite flow;
#X obj 1612 -178 inlet;
#X obj 402 -128 + 1;
#X obj 612 -139 + 2;
#X obj 822 -138 + 3;
#X obj 1032 -138 + 4;
#X obj 1252 -139 + 5;
#X obj 1462 -138 + 6;
#X obj 1672 -138 + 7;
#X obj 209 -59 r gui;
#X obj 200 0 +;
#X obj 449 -59 r gui;
#X obj 440 0 +;
#X obj 669 -59 r gui;
#X obj 660 0 +;
#X obj 869 -69 r gui;
#X obj 860 -10 +;
#X obj 1089 -59 r gui;
#X obj 1080 0 +;
#X obj 1299 -59 r gui;
#X obj 1290 0 +;
#X obj 1509 -59 r gui;
#X obj 1500 0 +;
#X obj 1739 -69 r gui;
#X obj 1730 -10 +;
#X connect 0 0 2 0;
#X connect 1 0 3 0;
#X connect 1 0 4 1;
#X connect 1 0 8 1;
#X connect 2 0 1 0;
#X connect 2 0 59 0;
#X connect 2 0 60 0;
#X connect 2 0 61 0;
#X connect 2 0 62 0;
#X connect 2 0 63 0;
#X connect 2 0 64 0;
#X connect 2 0 65 0;
#X connect 3 0 5 1;
#X connect 5 0 6 0;
#X connect 6 0 67 0;
#X connect 7 0 8 0;
#X connect 9 0 5 0;
#X connect 9 0 4 0;
#X connect 10 0 12 1;
#X connect 12 0 13 0;
#X connect 13 0 69 0;
#X connect 14 0 15 0;
#X connect 16 0 12 0;
#X connect 16 0 11 0;
#X connect 17 0 19 1;
#X connect 19 0 20 0;
#X connect 20 0 71 0;
#X connect 21 0 22 0;
#X connect 23 0 19 0;
#X connect 23 0 18 0;
#X connect 24 0 26 1;
#X connect 26 0 27 0;
#X connect 27 0 73 0;
#X connect 28 0 29 0;
#X connect 30 0 26 0;
#X connect 30 0 25 0;
#X connect 31 0 33 1;
#X connect 33 0 34 0;
#X connect 34 0 75 0;
#X connect 35 0 36 0;
#X connect 37 0 33 0;
#X connect 37 0 32 0;
#X connect 38 0 40 1;
#X connect 40 0 41 0;
#X connect 41 0 77 0;
#X connect 42 0 43 0;
#X connect 44 0 40 0;
#X connect 44 0 39 0;
#X connect 45 0 47 1;
#X connect 47 0 48 0;
#X connect 48 0 79 0;
#X connect 49 0 50 0;
#X connect 51 0 47 0;
#X connect 51 0 46 0;
#X connect 52 0 54 1;
#X connect 54 0 55 0;
#X connect 55 0 81 0;
#X connect 56 0 57 0;
#X connect 58 0 54 0;
#X connect 58 0 53 0;
#X connect 59 0 10 0;
#X connect 59 0 11 1;
#X connect 59 0 15 1;
#X connect 60 0 17 0;
#X connect 60 0 18 1;
#X connect 60 0 22 1;
#X connect 61 0 24 0;
#X connect 61 0 25 1;
#X connect 61 0 29 1;
#X connect 62 0 31 0;
#X connect 62 0 32 1;
#X connect 62 0 36 1;
#X connect 63 0 38 0;
#X connect 63 0 39 1;
#X connect 63 0 43 1;
#X connect 64 0 45 0;
#X connect 64 0 46 1;
#X connect 64 0 50 1;
#X connect 65 0 52 0;
#X connect 65 0 53 1;
#X connect 65 0 57 1;
#X connect 66 0 67 1;
#X connect 67 0 7 0;
#X connect 68 0 69 1;
#X connect 69 0 14 0;
#X connect 70 0 71 1;
#X connect 71 0 21 0;
#X connect 72 0 73 1;
#X connect 73 0 28 0;
#X connect 74 0 75 1;
#X connect 75 0 35 0;
#X connect 76 0 77 1;
#X connect 77 0 42 0;
#X connect 78 0 79 1;
#X connect 79 0 49 0;
#X connect 80 0 81 1;
#X connect 81 0 56 0;
